# xmcd CD database file
#
# Track frame offsets:
#	150
#	24886
#	32836
#	52776
#	83581
#	105114
#	121082
#	138849
#	157574
#	178141
#	203692
#	226770
#
# Disc length: 3117 seconds
#
# Revision: 0
# Processed by: cddbd v1.5.2PL0 Copyright (c) Steve Scherf et al.
# Submitted via: CDex 1.51
#
DISCID=740c2b0c
DTITLE=Various Artist - You've Been Jazzed 1 - Disc 2 of 2
DYEAR=2006
DGENRE=Jazz
TTITLE0=Baby Come Down - Faberge
TTITLE1=I Know What That Was - Floris
TTITLE2=7 Miles - Monte La Rue
TTITLE3=Sweet Taste - Collective Sound Members
TTITLE4=Hazy World - Faberg
TTITLE5=Almost - Floris/Carmen
TTITLE6=Hole In The Sky - Monte La Rue
TTITLE7=Nothing To It - Floris/Rose
TTITLE8=Don't Be Late - Faberg
TTITLE9=Everytime - Floris
TTITLE10=1000 Islands - Monte La Rue
TTITLE11=Midnight Slow - Deluxe All Stars
EXTD=YEAR: 2006
EXTT0=
EXTT1=
EXTT2=
EXTT3=
EXTT4=
EXTT5=
EXTT6=
EXTT7=
EXTT8=
EXTT9=
EXTT10=
EXTT11=
PLAYORDER=
